<svg xmlns="http://www.w3.org/2000/svg" viewBox="0 0 407.44 91.3"><defs><style>.cls-1,.cls-2{fill:#231f20;}.cls-2{font-size:18px;font-family:Montserrat-Regular, Montserrat;letter-spacing:0.1em;}</style></defs><title>logo-abenilza</title><g id="Layer_2" data-name="Layer 2"><g id="Layer_1-2" data-name="Layer 1"><path class="cls-1" d="M15.68,43.2l-5.6,12.72H0L24.64,0H34.72L59.36,55.92H49.28L29.68,11.44Zm14-31.76-10.16,23"/><path class="cls-1" d="M90,55.92H65.52V0H87.28a31.41,31.41,0,0,1,9.8,1.36A13.46,13.46,0,0,1,103.2,5,14.3,14.3,0,0,1,107,14.8q0,6.56-4.16,9.76A18.27,18.27,0,0,1,100.8,26q-.56.28-2,.92a14.67,14.67,0,0,1,8.28,4.68,13,13,0,0,1,3.08,8.84,15,15,0,0,1-4,10.32Q101.44,55.92,90,55.92ZM75,23.2H87q10.24,0,10.24-7,0-4-2.48-5.76T87,8.72H75Zm0,24h14.8q5.2,0,8-1.64t2.76-6.2q0-7.44-11.92-7.44H75Z"/><path class="cls-1" d="M159.68,0V8.88H129.84v14.8h26.8v8.4h-26.8V47h30.8v8.88H120.4V0Z"/><path class="cls-1" d="M213,0h9.44V55.92H212.24l-31.68-40.8v40.8h-9.44V0h9.44L213,41.76Z"/><path class="cls-1" d="M236.4,0h9.44V55.92H236.4Z"/><path class="cls-1" d="M259.76,55.92V0h9.44V47h25.52v9Z"/><path class="cls-1" d="M332,8.64H300.48V0h44.64V7.36L312.64,47v.24h33v8.72H299.44V48.64L332,8.88Z"/><path class="cls-1" d="M363.76,43.2l-5.6,12.72H348.08L372.72,0H382.8l24.64,55.92H397.36l-19.6-44.48Zm14-31.76-10.16,23"/><text class="cls-2" transform="translate(129.43 86.8)">HAIR STYLIST</text></g></g></svg>